<svg width="300" height="44" viewBox="0 0 300 44" fill="none" xmlns="http://www.w3.org/2000/svg">
<rect width="300" height="44" rx="5" fill="#5A78FF"/>
<path d="M57.1971 16.364H61.5446C64.0976 16.364 65.5221 17.6405 65.5221 19.62C65.5221 20.5265 64.9671 21.6365 63.8201 22.2655C65.4111 22.7835 66.0401 23.875 66.0401 24.9295C66.0401 26.9275 64.3936 28.5 61.7666 28.5H57.1971V16.364ZM59.6761 23.394V26.354H61.5446C62.6731 26.354 63.4501 25.91 63.4501 24.874C63.4501 24.023 62.6916 23.394 61.5446 23.394H59.6761ZM59.6761 18.51V21.3405H61.3411C62.3216 21.3405 62.9876 20.804 62.9876 19.9345C62.9876 19.028 62.4141 18.51 61.3411 18.51H59.6761ZM72.1242 20.9335C70.9032 20.9335 70.0707 21.581 69.8117 22.8945H74.3997C74.2332 21.507 73.2897 20.9335 72.1242 20.9335ZM76.6382 24.43H69.7747C69.9597 25.8545 70.7737 26.7425 72.2537 26.7425C73.6782 26.7425 74.1962 26.132 74.4367 25.2255L76.5827 25.54C76.2127 27.7415 74.0852 28.7405 72.3462 28.7405C69.5342 28.7405 67.3512 26.872 67.3512 23.801C67.3512 20.804 69.4232 18.917 72.1797 18.917C74.7697 18.917 76.6382 20.8965 76.6382 23.69V24.43ZM79.0133 16.919L81.4368 16.6045V19.176H83.6568V21.0445H81.4368V25.6695C81.4368 26.3355 81.6958 26.6685 82.4543 26.6685C82.8613 26.6685 83.1018 26.613 83.4903 26.5205L83.8048 28.426C83.2683 28.5925 82.5838 28.7405 81.9178 28.7405C79.9198 28.7405 79.0133 27.649 79.0133 25.873V21.0445H77.3483V19.176H79.0133V16.919ZM88.9086 28.7405C87.0216 28.7405 84.8756 27.1495 84.8756 23.7455C84.8756 20.4895 86.9846 18.917 88.9826 18.917C90.3516 18.917 91.3876 19.5275 92.0536 20.952V19.176H94.4216V28.5H92.0536V26.6685C91.5726 27.7785 90.5366 28.7405 88.9086 28.7405ZM89.6856 20.9335C88.5201 20.9335 87.2991 21.8585 87.2991 23.8565C87.2991 25.8175 88.5016 26.7055 89.6671 26.7055C90.9251 26.7055 92.0536 25.873 92.0536 23.8565C92.0536 21.877 90.9251 20.9335 89.6856 20.9335ZM96.8675 15.957H99.2355V28.5H96.8675V15.957ZM116.982 21.026C115.909 21.026 115.114 21.7105 115.114 23.209V28.5H112.746V23.1535C112.746 21.5995 111.987 21.026 111.007 21.026C109.86 21.026 109.027 21.7105 109.027 23.209V28.5H106.659V19.176H109.027V20.582C109.675 19.3425 110.97 18.917 112.08 18.917C113.264 18.917 114.411 19.398 114.892 20.767C115.613 19.3425 116.927 18.917 118.018 18.917C119.683 18.917 121.2 19.7495 121.2 22.247V28.5H118.832V23.1535C118.832 21.5995 118.037 21.026 116.982 21.026ZM127.715 20.9335C126.494 20.9335 125.661 21.581 125.402 22.8945H129.99C129.824 21.507 128.88 20.9335 127.715 20.9335ZM132.229 24.43H125.365C125.55 25.8545 126.364 26.7425 127.844 26.7425C129.269 26.7425 129.787 26.132 130.027 25.2255L132.173 25.54C131.803 27.7415 129.676 28.7405 127.937 28.7405C125.125 28.7405 122.942 26.872 122.942 23.801C122.942 20.804 125.014 18.917 127.77 18.917C130.36 18.917 132.229 20.8965 132.229 23.69V24.43ZM142.984 15.957V28.5H140.616V26.7795C140.135 27.871 139.099 28.7405 137.453 28.7405C135.584 28.7405 133.438 27.1495 133.438 23.7455C133.438 20.4895 135.566 18.917 137.712 18.917C138.933 18.917 139.95 19.5275 140.616 20.952V15.957H142.984ZM138.248 20.9335C137.083 20.9335 135.862 21.877 135.862 23.8565C135.862 25.7805 137.064 26.7055 138.23 26.7055C139.488 26.7055 140.616 25.836 140.616 23.8565C140.616 21.9325 139.488 20.9335 138.248 20.9335Z" fill="white"/>
<path fill-rule="evenodd" clip-rule="evenodd" d="M150.812 28.4595H152.888C153.052 28.4595 153.179 28.3867 153.234 28.2046L155.637 20.6119C155.674 20.4662 155.819 20.4662 155.874 20.6119L158.733 28.15C158.806 28.3502 158.915 28.4595 159.115 28.4595H160.408C160.59 28.4595 160.736 28.3685 160.808 28.15L163.576 20.6119C163.631 20.4662 163.795 20.4662 163.831 20.6119L166.18 28.2046C166.216 28.3502 166.325 28.4595 166.508 28.4595H168.711C168.929 28.4595 169.057 28.2956 168.984 28.0589L165.36 16.3694C165.306 16.2055 165.178 16.0781 165.014 16.0781H163.157C162.993 16.0781 162.848 16.2237 162.793 16.3694L159.934 23.7436C159.88 23.9075 159.734 23.8893 159.68 23.7436L156.803 16.3694C156.748 16.2237 156.602 16.0781 156.439 16.0781H154.581C154.417 16.0781 154.29 16.2055 154.235 16.3694L150.539 28.0589C150.466 28.3138 150.594 28.4595 150.812 28.4595ZM174.464 28.6962C171.66 28.6962 169.585 26.5841 169.585 23.8893C169.585 21.1763 171.66 19.0824 174.464 19.0824C177.287 19.0824 179.344 21.1763 179.344 23.8893C179.344 26.5841 177.287 28.6962 174.464 28.6962ZM174.464 26.4384C175.794 26.4384 176.868 25.2913 176.868 23.8893C176.868 22.4691 175.794 21.3402 174.464 21.3402C173.153 21.3402 172.061 22.4691 172.061 23.8893C172.061 25.2913 173.153 26.4384 174.464 26.4384ZM186.19 28.6962C185.116 28.6962 184.388 28.2592 183.714 27.713C183.532 27.5673 183.368 27.6219 183.368 27.8768V28.1135C183.368 28.2956 183.222 28.4595 183.04 28.4595H181.329C181.147 28.4595 180.983 28.2956 180.983 28.1135V16.424C180.983 16.242 181.147 16.0781 181.329 16.0781H183.131C183.313 16.0781 183.459 16.242 183.459 16.424V19.7561C183.459 19.9928 183.623 20.0656 183.878 19.8835C184.424 19.483 185.225 19.0824 186.263 19.0824C188.758 19.0824 190.669 21.1945 190.669 23.8893C190.669 26.5841 188.721 28.6962 186.19 28.6962ZM185.772 26.4202C187.119 26.4202 188.193 25.2913 188.193 23.8893C188.193 22.4691 187.119 21.3402 185.772 21.3402C184.461 21.3402 183.386 22.4509 183.386 23.8893C183.386 25.3095 184.442 26.4202 185.772 26.4202ZM193.565 18.3177C194.311 18.3177 194.948 17.6804 194.948 16.9339C194.948 16.1873 194.311 15.55 193.565 15.55C192.818 15.55 192.181 16.1873 192.181 16.9339C192.181 17.6804 192.818 18.3177 193.565 18.3177ZM192.636 28.4595H194.439C194.621 28.4595 194.784 28.2956 194.784 28.1135V19.665C194.784 19.483 194.621 19.3191 194.439 19.3191H192.636C192.454 19.3191 192.308 19.483 192.308 19.665V28.1135C192.308 28.2956 192.454 28.4595 192.636 28.4595ZM200.156 28.5505C200.338 28.5505 200.502 28.4049 200.502 28.2228V26.7297C200.502 26.5295 200.338 26.3838 200.156 26.3838C199.519 26.3838 199.264 26.0014 199.264 25.4188V16.424C199.264 16.242 199.1 16.0781 198.918 16.0781H197.115C196.933 16.0781 196.787 16.242 196.787 16.424V25.3641C196.787 27.7676 197.752 28.5505 200.156 28.5505ZM205.982 28.6962C203.215 28.6962 201.248 26.6751 201.248 23.9257C201.248 21.1581 203.288 19.0824 206.019 19.0824C208.732 19.0824 210.716 21.1945 210.716 23.9621C210.716 24.2899 210.625 24.563 210.298 24.563H204.034C203.87 24.563 203.816 24.654 203.834 24.7997C203.961 25.8375 204.872 26.6023 206.055 26.6023C206.838 26.6023 207.403 26.2563 207.785 25.8193C207.985 25.6008 208.149 25.528 208.368 25.528H210.043C210.334 25.528 210.462 25.7283 210.352 26.0196C209.751 27.5673 208.04 28.6962 205.982 28.6962ZM204.052 23.0881H207.894C208.022 23.0881 208.076 23.0335 208.058 22.8879C207.876 21.9228 207.02 21.1763 205.982 21.1763C204.981 21.1763 204.143 21.8864 203.907 22.8332C203.87 22.9607 203.888 23.0881 204.052 23.0881ZM212.847 28.4595C212.665 28.4595 212.519 28.2956 212.519 28.1135V16.424C212.519 16.242 212.665 16.0781 212.847 16.0781H218.582C221.204 16.0781 222.989 17.6075 222.989 20.1749C222.989 22.6876 220.968 24.3263 218.455 24.3263H215.414C215.196 24.3263 215.086 24.4537 215.086 24.6722V28.1135C215.086 28.2956 214.922 28.4595 214.74 28.4595H212.847ZM215.396 22.2142H218.455C219.711 22.2142 220.403 21.1399 220.403 20.1931C220.403 19.1916 219.729 18.2448 218.455 18.2448H215.396C215.177 18.2448 215.086 18.3541 215.086 18.5726V21.8864C215.086 22.1049 215.177 22.2142 215.396 22.2142ZM228.524 28.6962C226.084 28.6962 224.045 26.6387 224.045 23.8893C224.045 21.1217 226.12 19.0824 228.56 19.0824C229.598 19.0824 230.326 19.483 230.982 20.011C231.146 20.1567 231.328 20.1385 231.328 19.92V19.6468C231.328 19.4648 231.474 19.3191 231.656 19.3191H233.367C233.549 19.3191 233.713 19.483 233.713 19.665V25.6919C233.713 26.1471 233.877 26.3474 234.187 26.3656C234.35 26.3838 234.496 26.493 234.496 26.6569V28.241C234.496 28.4049 234.369 28.5505 234.187 28.5505C232.985 28.5505 232.275 28.2046 231.874 27.5127C231.765 27.3306 231.637 27.2942 231.455 27.4763C230.727 28.15 229.889 28.6962 228.524 28.6962ZM228.943 26.4384C230.272 26.4384 231.328 25.3095 231.328 23.8893C231.328 22.4509 230.272 21.3402 228.943 21.3402C227.595 21.3402 226.539 22.4691 226.539 23.8893C226.539 25.2913 227.595 26.4384 228.943 26.4384ZM235.771 32.01C238.429 32.01 239.758 30.8994 241.014 27.9315L244.456 19.7561C244.547 19.5376 244.383 19.3191 244.146 19.3191H242.417C242.234 19.3191 242.143 19.4283 242.071 19.6104L240.068 24.472C239.904 24.8543 239.685 24.8725 239.521 24.4902L237.428 19.6468C237.355 19.4648 237.245 19.3191 237.063 19.3191H235.261C235.042 19.3191 234.86 19.5194 234.969 19.8107L238.32 27.3852C238.429 27.6401 238.465 27.8404 238.393 28.1135C238.138 29.2242 236.972 29.8615 235.771 29.8615C235.589 29.8615 235.425 30.0072 235.425 30.1893V31.6641C235.425 31.8462 235.589 32.01 235.771 32.01Z" fill="white"/>
</svg>
